<svg xmlns="http://www.w3.org/2000/svg" width="64" height="64" viewBox="0 0 64 64" fill="none">
  <!-- Background circle -->
  <circle cx="32" cy="32" r="32" fill="#0070f3" />
  
  <!-- Stylized B letterform -->
  <path d="M24 16H40C44.4183 16 48 19.5817 48 24C48 28.4183 44.4183 32 40 32H24V16Z" fill="white" opacity="0.85" />
  <path d="M24 32H42C46.4183 32 50 35.5817 50 40C50 44.4183 46.4183 48 42 48H24V32Z" fill="white" />

  <!-- Water droplet -->
  <path d="M20 17C20 17 14 24 14 28C14 31.3137 16.6863 34 20 34C23.3137 34 26 31.3137 26 28C26 24 20 17 20 17Z" fill="white" opacity="0.9" />
</svg> 