<svg width="1200" height="630" viewBox="0 0 1200 630" fill="none" xmlns="http://www.w3.org/2000/svg">
  <!-- Background -->
  <rect width="1200" height="630" fill="#0070f3"/>
  
  <!-- Decorative elements -->
  <circle cx="1100" cy="100" r="80" fill="white" opacity="0.1"/>
  <circle cx="100" cy="550" r="120" fill="white" opacity="0.1"/>
  <rect x="900" y="450" width="200" height="200" rx="20" fill="white" opacity="0.05"/>
  
  <!-- Company logo/icon -->
  <g transform="translate(150, 150) scale(3)">
    <!-- Background circle -->
    <circle cx="32" cy="32" r="32" fill="white" opacity="0.9"/>
    
    <!-- Stylized B letterform -->
    <path d="M24 16H40C44.4183 16 48 19.5817 48 24C48 28.4183 44.4183 32 40 32H24V16Z" fill="#0070f3" opacity="0.85"/>
    <path d="M24 32H42C46.4183 32 50 35.5817 50 40C50 44.4183 46.4183 48 42 48H24V32Z" fill="#0070f3"/>
  </g>
  
  <!-- Company name -->
  <text x="450" y="180" font-family="Arial, sans-serif" font-weight="bold" font-size="72" fill="white">BRIGHTWAY</text>
  <text x="450" y="260" font-family="Arial, sans-serif" font-weight="bold" font-size="72" fill="white">CLEANING</text>
  
  <!-- Tagline -->
  <text x="450" y="350" font-family="Arial, sans-serif" font-size="36" fill="white" opacity="0.9">Professional Commercial Cleaning Services</text>
  
  <!-- Features -->
  <g transform="translate(450, 400)">
    <circle cx="15" cy="15" r="8" fill="white"/>
    <text x="40" y="24" font-family="Arial, sans-serif" font-size="28" fill="white">Quality Cleaning Solutions</text>
  </g>
  
  <g transform="translate(450, 450)">
    <circle cx="15" cy="15" r="8" fill="white"/>
    <text x="40" y="24" font-family="Arial, sans-serif" font-size="28" fill="white">Professional &amp; Reliable Teams</text>
  </g>
  
  <g transform="translate(450, 500)">
    <circle cx="15" cy="15" r="8" fill="white"/>
    <text x="40" y="24" font-family="Arial, sans-serif" font-size="28" fill="white">100% Satisfaction Guarantee</text>
  </g>
</svg> 